<svg width="691" height="716" viewBox="0 0 518.25 537" xmlns="http://www.w3.org/2000/svg" xmlns:xlink="http://www.w3.org/1999/xlink">
<g id="graph0" class="graph" transform="translate(18.16824732956509,384.6929702717884) scale(0.2969524455686284)">
<title>metadata</title>
<polygon fill="white" stroke="none" points="-4,4 -4,-760 1528,-760 1528,4 -4,4"/>
<!-- 2011 -->
<g id="node1" class="node">
<title>2011</title>
<text text-anchor="middle" x="27" y="-733.8" font-family="Times,serif" font-size="14.00">2011</text>
</g>
<!-- 316 -->
<g id="node2" class="node">
<title>316</title>
<ellipse fill="none" stroke="black" cx="1214" cy="-738" rx="27" ry="18"/>
<text text-anchor="middle" x="1214" y="-733.8" font-family="Times,serif" font-size="14.00">316</text>
</g>
<!-- 317 -->
<g id="node3" class="node">
<title>317</title>
<ellipse fill="none" stroke="black" cx="690" cy="-738" rx="27" ry="18"/>
<text text-anchor="middle" x="690" y="-733.8" font-family="Times,serif" font-size="14.00">317</text>
</g>
<!-- 317&#45;&gt;316 -->
<g id="edge68" class="edge">
<title>317-&gt;316</title>
<path fill="none" stroke="black" d="M717.38,-738C870.04,-738 1022.71,-738 1175.38,-738"/>
<polygon fill="black" stroke="black" points="1175.33,-741.5 1185.33,-738 1175.33,-734.5 1175.33,-741.5"/>
</g>
<!-- 2012 -->
<g id="node4" class="node">
<title>2012</title>
<text text-anchor="middle" x="27" y="-661.8" font-family="Times,serif" font-size="14.00">2012</text>
</g>
<!-- 2012&#45;&gt;2011 -->
<!-- 311 -->
<g id="node5" class="node">
<title>311</title>
<ellipse fill="none" stroke="black" cx="745" cy="-666" rx="27" ry="18"/>
<text text-anchor="middle" x="745" y="-661.8" font-family="Times,serif" font-size="14.00">311</text>
</g>
<!-- 311&#45;&gt;317 -->
<g id="edge65" class="edge">
<title>311-&gt;317</title>
<path fill="none" stroke="black" d="M732.79,-682.54C725.89,-691.33 717.09,-702.52 709.27,-712.47"/>
<polygon fill="black" stroke="black" points="706.53,-710.29 703.11,-720.32 712.04,-714.62 706.53,-710.29"/>
</g>
<!-- 312 -->
<g id="node6" class="node">
<title>312</title>
<ellipse fill="none" stroke="black" cx="1129" cy="-666" rx="27" ry="18"/>
<text text-anchor="middle" x="1129" y="-661.8" font-family="Times,serif" font-size="14.00">312</text>
</g>
<!-- 312&#45;&gt;316 -->
<g id="edge66" class="edge">
<title>312-&gt;316</title>
<path fill="none" stroke="black" d="M1145.39,-680.5C1157.66,-690.6 1174.66,-704.61 1188.68,-716.14"/>
<polygon fill="black" stroke="black" points="1186.26,-718.69 1196.2,-722.34 1190.71,-713.28 1186.26,-718.69"/>
</g>
<!-- 313 -->
<g id="node7" class="node">
<title>313</title>
<ellipse fill="none" stroke="black" cx="1007" cy="-666" rx="27" ry="18"/>
<text text-anchor="middle" x="1007" y="-661.8" font-family="Times,serif" font-size="14.00">313</text>
</g>
<!-- 314 -->
<g id="node8" class="node">
<title>314</title>
<ellipse fill="none" stroke="black" cx="462" cy="-666" rx="27" ry="18"/>
<text text-anchor="middle" x="462" y="-661.8" font-family="Times,serif" font-size="14.00">314</text>
</g>
<!-- 314&#45;&gt;313 -->
<g id="edge67" class="edge">
<title>314-&gt;313</title>
<path fill="none" stroke="black" d="M488.61,-661.44C578.27,-646.49 868.64,-601.5 957,-630 966.26,-632.99 975.26,-638.4 983.01,-644.14"/>
<polygon fill="black" stroke="black" points="980.6,-646.69 990.59,-650.21 984.97,-641.23 980.6,-646.69"/>
</g>
<!-- 2013 -->
<g id="node9" class="node">
<title>2013</title>
<text text-anchor="middle" x="27" y="-589.8" font-family="Times,serif" font-size="14.00">2013</text>
</g>
<!-- 2013&#45;&gt;2012 -->
<!-- 301 -->
<g id="node10" class="node">
<title>301</title>
<ellipse fill="none" stroke="black" cx="931" cy="-594" rx="27" ry="18"/>
<text text-anchor="middle" x="931" y="-589.8" font-family="Times,serif" font-size="14.00">301</text>
</g>
<!-- 301&#45;&gt;316 -->
<g id="edge55" class="edge">
<title>301-&gt;316</title>
<path fill="none" stroke="black" d="M933.94,-612.24C938.33,-632.56 948.64,-665.86 971,-684 1002.12,-709.25 1115.87,-725.75 1176.06,-732.91"/>
<polygon fill="black" stroke="black" points="1175.5,-736.37 1185.84,-734.04 1176.31,-729.42 1175.5,-736.37"/>
</g>
<!-- 301&#45;&gt;317 -->
<g id="edge56" class="edge">
<title>301-&gt;317</title>
<path fill="none" stroke="black" d="M927.72,-612.08C922.95,-632.25 912.14,-665.39 890,-684 843.91,-722.75 772.43,-733.48 728.57,-736.27"/>
<polygon fill="black" stroke="black" points="728.56,-732.76 718.75,-736.77 728.92,-739.75 728.56,-732.76"/>
</g>
<!-- 301&#45;&gt;311 -->
<g id="edge57" class="edge">
<title>301-&gt;311</title>
<path fill="none" stroke="black" d="M907.82,-603.72C875.29,-615.97 815.91,-638.32 778.55,-652.37"/>
<polygon fill="black" stroke="black" points="777.72,-648.95 769.6,-655.74 780.19,-655.5 777.72,-648.95"/>
</g>
<!-- 301&#45;&gt;312 -->
<g id="edge58" class="edge">
<title>301-&gt;312</title>
<path fill="none" stroke="black" d="M954.49,-603.3C989.25,-615.59 1054.58,-638.69 1094.7,-652.87"/>
<polygon fill="black" stroke="black" points="1093.52,-656.17 1104.11,-656.2 1095.85,-649.57 1093.52,-656.17"/>
</g>
<!-- 301&#45;&gt;313 -->
<g id="edge59" class="edge">
<title>301-&gt;313</title>
<path fill="none" stroke="black" d="M946.38,-609.17C956.99,-618.94 971.3,-632.12 983.35,-643.22"/>
<polygon fill="black" stroke="black" points="980.8,-645.63 990.53,-649.83 985.55,-640.48 980.8,-645.63"/>
</g>
<!-- 301&#45;&gt;314 -->
<g id="edge60" class="edge">
<title>301-&gt;314</title>
<path fill="none" stroke="black" d="M904.78,-598.91C826.05,-610.66 591.51,-645.67 499.57,-659.39"/>
<polygon fill="black" stroke="black" points="499.2,-655.91 489.82,-660.85 500.23,-662.83 499.2,-655.91"/>
</g>
<!-- 305 -->
<g id="node11" class="node">
<title>305</title>
<ellipse fill="none" stroke="black" cx="745" cy="-594" rx="27" ry="18"/>
<text text-anchor="middle" x="745" y="-589.8" font-family="Times,serif" font-size="14.00">305</text>
</g>
<!-- 305&#45;&gt;316 -->
<g id="edge61" class="edge">
<title>305-&gt;316</title>
<path fill="none" stroke="black" d="M765.36,-606.12C800.44,-624.83 874.95,-662.64 942,-684 1023.4,-709.93 1122.74,-725.39 1175.97,-732.43"/>
<polygon fill="black" stroke="black" points="1175.37,-735.88 1185.73,-733.69 1176.26,-728.93 1175.37,-735.88"/>
</g>
<!-- 305&#45;&gt;317 -->
<g id="edge62" class="edge">
<title>305-&gt;317</title>
<path fill="none" stroke="black" d="M732.25,-610.3C724.44,-620.41 714.85,-634.29 709,-648 700.74,-667.34 695.94,-690.62 693.23,-708.52"/>
<polygon fill="black" stroke="black" points="689.79,-707.79 691.9,-718.17 696.73,-708.74 689.79,-707.79"/>
</g>
<!-- 305&#45;&gt;311 -->
<g id="edge63" class="edge">
<title>305-&gt;311</title>
<path fill="none" stroke="black" d="M745,-612.3C745,-619.59 745,-628.27 745,-636.46"/>
<polygon fill="black" stroke="black" points="741.5,-636.38 745,-646.38 748.5,-636.38 741.5,-636.38"/>
</g>
<!-- 305&#45;&gt;314 -->
<g id="edge64" class="edge">
<title>305-&gt;314</title>
<path fill="none" stroke="black" d="M719.89,-601.21C669.54,-613.67 556.12,-641.72 497.92,-656.11"/>
<polygon fill="black" stroke="black" points="497.39,-652.64 488.53,-658.44 499.08,-659.43 497.39,-652.64"/>
</g>
<!-- 2014 -->
<g id="node12" class="node">
<title>2014</title>
<text text-anchor="middle" x="27" y="-517.8" font-family="Times,serif" font-size="14.00">2014</text>
</g>
<!-- 2014&#45;&gt;2013 -->
<!-- 293 -->
<g id="node13" class="node">
<title>293</title>
<ellipse fill="none" stroke="black" cx="1045" cy="-522" rx="27" ry="18"/>
<text text-anchor="middle" x="1045" y="-517.8" font-family="Times,serif" font-size="14.00">293</text>
</g>
<!-- 293&#45;&gt;312 -->
<g id="edge53" class="edge">
<title>293-&gt;312</title>
<path fill="none" stroke="black" d="M1054.64,-539.29C1069.07,-563.68 1096.43,-609.95 1113.64,-639.03"/>
<polygon fill="black" stroke="black" points="1110.6,-640.77 1118.71,-647.6 1116.63,-637.21 1110.6,-640.77"/>
</g>
<!-- 293&#45;&gt;305 -->
<g id="edge54" class="edge">
<title>293-&gt;305</title>
<path fill="none" stroke="black" d="M1019.68,-528.91C966.46,-541.32 842.85,-570.17 781.25,-584.54"/>
<polygon fill="black" stroke="black" points="780.56,-581.11 771.62,-586.79 782.15,-587.92 780.56,-581.11"/>
</g>
<!-- 2015 -->
<g id="node14" class="node">
<title>2015</title>
<text text-anchor="middle" x="27" y="-445.8" font-family="Times,serif" font-size="14.00">2015</text>
</g>
<!-- 2015&#45;&gt;2014 -->
<!-- 277 -->
<g id="node15" class="node">
<title>277</title>
<ellipse fill="none" stroke="black" cx="527" cy="-450" rx="27" ry="18"/>
<text text-anchor="middle" x="527" y="-445.8" font-family="Times,serif" font-size="14.00">277</text>
</g>
<!-- 277&#45;&gt;317 -->
<g id="edge41" class="edge">
<title>277-&gt;317</title>
<path fill="none" stroke="black" d="M536.23,-467.2C563.18,-514.47 641.91,-652.62 675.04,-710.74"/>
<polygon fill="black" stroke="black" points="671.93,-712.36 679.92,-719.31 678.01,-708.89 671.93,-712.36"/>
</g>
<!-- 277&#45;&gt;311 -->
<g id="edge42" class="edge">
<title>277-&gt;311</title>
<path fill="none" stroke="black" d="M541.64,-465.37C578.87,-501.92 677.38,-598.62 722.21,-642.62"/>
<polygon fill="black" stroke="black" points="719.75,-645.12 729.34,-649.63 724.66,-640.13 719.75,-645.12"/>
</g>
<!-- 277&#45;&gt;314 -->
<g id="edge43" class="edge">
<title>277-&gt;314</title>
<path fill="none" stroke="black" d="M521.79,-468.15C510.59,-505.02 484.13,-592.14 470.48,-637.09"/>
<polygon fill="black" stroke="black" points="467.14,-636.03 467.58,-646.62 473.84,-638.07 467.14,-636.03"/>
</g>
<!-- 279 -->
<g id="node16" class="node">
<title>279</title>
<ellipse fill="none" stroke="black" cx="1231" cy="-450" rx="27" ry="18"/>
<text text-anchor="middle" x="1231" y="-445.8" font-family="Times,serif" font-size="14.00">279</text>
</g>
<!-- 279&#45;&gt;312 -->
<g id="edge44" class="edge">
<title>279-&gt;312</title>
<path fill="none" stroke="black" d="M1229.96,-468.28C1227.41,-499.26 1218.76,-565.35 1190,-612 1181.75,-625.38 1169.04,-637.2 1157.35,-646.26"/>
<polygon fill="black" stroke="black" points="1155.5,-643.28 1149.52,-652.02 1159.65,-648.92 1155.5,-643.28"/>
</g>
<!-- 283 -->
<g id="node17" class="node">
<title>283</title>
<ellipse fill="none" stroke="black" cx="1026" cy="-450" rx="27" ry="18"/>
<text text-anchor="middle" x="1026" y="-445.8" font-family="Times,serif" font-size="14.00">283</text>
</g>
<!-- 283&#45;&gt;316 -->
<g id="edge45" class="edge">
<title>283-&gt;316</title>
<path fill="none" stroke="black" d="M1042.09,-464.36C1053.72,-474.51 1069.37,-489.19 1081,-504 1134.72,-572.37 1180.82,-664.93 1201.84,-710.04"/>
<polygon fill="black" stroke="black" points="1198.64,-711.45 1206,-719.07 1205,-708.52 1198.64,-711.45"/>
</g>
<!-- 283&#45;&gt;313 -->
<g id="edge46" class="edge">
<title>283-&gt;313</title>
<path fill="none" stroke="black" d="M1019.17,-467.87C1015.37,-478.13 1011.02,-491.6 1009,-504 1001.51,-549.99 1002.93,-604.36 1004.83,-636.69"/>
<polygon fill="black" stroke="black" points="1001.32,-636.67 1005.46,-646.42 1008.3,-636.22 1001.32,-636.67"/>
</g>
<!-- 283&#45;&gt;314 -->
<g id="edge47" class="edge">
<title>283-&gt;314</title>
<path fill="none" stroke="black" d="M1002.84,-459.79C914.64,-493.25 599.51,-612.82 495.55,-652.27"/>
<polygon fill="black" stroke="black" points="494.57,-648.9 486.46,-655.72 497.05,-655.44 494.57,-648.9"/>
</g>
<!-- 283&#45;&gt;293 -->
<g id="edge48" class="edge">
<title>283-&gt;293</title>
<path fill="none" stroke="black" d="M1030.6,-467.95C1032.65,-475.51 1035.13,-484.63 1037.44,-493.15"/>
<polygon fill="black" stroke="black" points="1034.05,-494.02 1040.05,-502.75 1040.8,-492.18 1034.05,-494.02"/>
</g>
<!-- 285 -->
<g id="node18" class="node">
<title>285</title>
<ellipse fill="none" stroke="black" cx="680" cy="-450" rx="27" ry="18"/>
<text text-anchor="middle" x="680" y="-445.8" font-family="Times,serif" font-size="14.00">285</text>
</g>
<!-- 285&#45;&gt;317 -->
<g id="edge49" class="edge">
<title>285-&gt;317</title>
<path fill="none" stroke="black" d="M680.61,-468.46C682.28,-516.24 686.94,-649.49 689,-708.39"/>
<polygon fill="black" stroke="black" points="685.5,-708.38 689.34,-718.26 692.49,-708.14 685.5,-708.38"/>
</g>
<!-- 285&#45;&gt;312 -->
<g id="edge50" class="edge">
<title>285-&gt;312</title>
<path fill="none" stroke="black" d="M702.65,-460.04C751.55,-479.73 870.41,-528.56 967,-576 1014.17,-599.17 1067.29,-629.12 1099.44,-647.69"/>
<polygon fill="black" stroke="black" points="1097.39,-650.55 1107.8,-652.54 1100.9,-644.49 1097.39,-650.55"/>
</g>
<!-- 285&#45;&gt;314 -->
<g id="edge51" class="edge">
<title>285-&gt;314</title>
<path fill="none" stroke="black" d="M665.36,-465.37C628.13,-501.92 529.62,-598.62 484.79,-642.62"/>
<polygon fill="black" stroke="black" points="482.34,-640.13 477.66,-649.63 487.25,-645.12 482.34,-640.13"/>
</g>
<!-- 285&#45;&gt;305 -->
<g id="edge52" class="edge">
<title>285-&gt;305</title>
<path fill="none" stroke="black" d="M687.58,-467.57C698.69,-491.83 719.5,-537.29 732.78,-566.3"/>
<polygon fill="black" stroke="black" points="729.49,-567.53 736.83,-575.16 735.86,-564.61 729.49,-567.53"/>
</g>
<!-- 2016 -->
<g id="node19" class="node">
<title>2016</title>
<text text-anchor="middle" x="27" y="-373.8" font-family="Times,serif" font-size="14.00">2016</text>
</g>
<!-- 2016&#45;&gt;2015 -->
<!-- 256 -->
<g id="node20" class="node">
<title>256</title>
<ellipse fill="none" stroke="black" cx="819" cy="-378" rx="27" ry="18"/>
<text text-anchor="middle" x="819" y="-373.8" font-family="Times,serif" font-size="14.00">256</text>
</g>
<!-- 256&#45;&gt;316 -->
<g id="edge34" class="edge">
<title>256-&gt;316</title>
<path fill="none" stroke="black" d="M846.06,-380.44C938.11,-385.58 1235.14,-404.18 1267,-432 1297.77,-458.87 1290,-480.14 1290,-521 1290,-521 1290,-521 1290,-595 1290,-641.27 1258.24,-687.06 1235.78,-713.65"/>
<polygon fill="black" stroke="black" points="1233.23,-711.25 1229.29,-721.09 1238.5,-715.86 1233.23,-711.25"/>
</g>
<!-- 256&#45;&gt;317 -->
<g id="edge35" class="edge">
<title>256-&gt;317</title>
<path fill="none" stroke="black" d="M822.75,-395.95C828.29,-422.48 838,-475.48 838,-521 838,-521 838,-521 838,-595 838,-658.19 766.88,-702.01 723.24,-722.95"/>
<polygon fill="black" stroke="black" points="721.78,-719.77 714.17,-727.14 724.72,-726.12 721.78,-719.77"/>
</g>
<!-- 256&#45;&gt;311 -->
<g id="edge36" class="edge">
<title>256-&gt;311</title>
<path fill="none" stroke="black" d="M818.71,-396.34C817.5,-435.98 811.42,-535.66 781,-612 776.99,-622.06 770.83,-632.13 764.72,-640.76"/>
<polygon fill="black" stroke="black" points="762.06,-638.48 758.88,-648.58 767.67,-642.66 762.06,-638.48"/>
</g>
<!-- 256&#45;&gt;314 -->
<g id="edge37" class="edge">
<title>256-&gt;314</title>
<path fill="none" stroke="black" d="M791.59,-379.37C720.41,-380.93 532.34,-389.13 491,-432 437.66,-487.32 447.15,-587.52 455.86,-636.5"/>
<polygon fill="black" stroke="black" points="452.42,-637.14 457.74,-646.3 459.3,-635.82 452.42,-637.14"/>
</g>
<!-- 258 -->
<g id="node21" class="node">
<title>258</title>
<ellipse fill="none" stroke="black" cx="293" cy="-378" rx="27" ry="18"/>
<text text-anchor="middle" x="293" y="-373.8" font-family="Times,serif" font-size="14.00">258</text>
</g>
<!-- 258&#45;&gt;317 -->
<g id="edge38" class="edge">
<title>258-&gt;317</title>
<path fill="none" stroke="black" d="M275.66,-392.22C247.76,-415.14 196,-465.17 196,-521 196,-521 196,-521 196,-595 196,-689.7 535.55,-724.98 651.63,-734.27"/>
<polygon fill="black" stroke="black" points="651.34,-737.76 661.58,-735.05 651.88,-730.78 651.34,-737.76"/>
</g>
<!-- 258&#45;&gt;313 -->
<g id="edge39" class="edge">
<title>258-&gt;313</title>
<path fill="none" stroke="black" d="M320.04,-378.74C388.32,-378.86 572.46,-383.99 716,-432 837.97,-472.79 880.64,-480.69 967,-576 982.73,-593.36 993.14,-617.94 999.38,-636.87"/>
<polygon fill="black" stroke="black" points="996.02,-637.83 1002.3,-646.36 1002.71,-635.78 996.02,-637.83"/>
</g>
<!-- 258&#45;&gt;314 -->
<g id="edge40" class="edge">
<title>258-&gt;314</title>
<path fill="none" stroke="black" d="M290.87,-396.15C286.64,-438.03 281.69,-546.81 334,-612 356.19,-639.66 395.28,-653.04 424.43,-659.41"/>
<polygon fill="black" stroke="black" points="423.49,-662.79 433.98,-661.3 424.85,-655.92 423.49,-662.79"/>
</g>
<!-- 2017 -->
<g id="node22" class="node">
<title>2017</title>
<text text-anchor="middle" x="27" y="-301.8" font-family="Times,serif" font-size="14.00">2017</text>
</g>
<!-- 2017&#45;&gt;2016 -->
<!-- 234 -->
<g id="node23" class="node">
<title>234</title>
<ellipse fill="none" stroke="black" cx="293" cy="-306" rx="27" ry="18"/>
<text text-anchor="middle" x="293" y="-301.8" font-family="Times,serif" font-size="14.00">234</text>
</g>
<!-- 234&#45;&gt;314 -->
<g id="edge25" class="edge">
<title>234-&gt;314</title>
<path fill="none" stroke="black" d="M305.75,-322.3C313.56,-332.41 323.15,-346.29 329,-360 344.88,-397.2 348,-408.55 348,-449 348,-449 348,-449 348,-523 348,-563.97 347.17,-579.41 372,-612 386.12,-630.53 408.74,-643.82 427.77,-652.45"/>
<polygon fill="black" stroke="black" points="426.22,-655.59 436.79,-656.29 428.96,-649.15 426.22,-655.59"/>
</g>
<!-- 234&#45;&gt;258 -->
<g id="edge26" class="edge">
<title>234-&gt;258</title>
<path fill="none" stroke="black" d="M293,-324.3C293,-331.59 293,-340.27 293,-348.46"/>
<polygon fill="black" stroke="black" points="289.5,-348.38 293,-358.38 296.5,-348.38 289.5,-348.38"/>
</g>
<!-- 237 -->
<g id="node24" class="node">
<title>237</title>
<ellipse fill="none" stroke="black" cx="179" cy="-306" rx="27" ry="18"/>
<text text-anchor="middle" x="179" y="-301.8" font-family="Times,serif" font-size="14.00">237</text>
</g>
<!-- 237&#45;&gt;317 -->
<g id="edge27" class="edge">
<title>237-&gt;317</title>
<path fill="none" stroke="black" d="M174.85,-323.93C168.73,-350.43 158,-403.39 158,-449 158,-449 158,-449 158,-595 158,-647.3 188.77,-659.53 235,-684 307.03,-722.12 555.36,-733.17 651.53,-736.07"/>
<polygon fill="black" stroke="black" points="651.14,-739.56 661.23,-736.34 651.34,-732.56 651.14,-739.56"/>
</g>
<!-- 237&#45;&gt;314 -->
<g id="edge28" class="edge">
<title>237-&gt;314</title>
<path fill="none" stroke="black" d="M177.9,-324.39C175.65,-376.1 176.42,-530.36 258,-612 281.2,-635.22 372.1,-651.93 424.39,-659.84"/>
<polygon fill="black" stroke="black" points="423.65,-663.27 434.05,-661.27 424.67,-656.35 423.65,-663.27"/>
</g>
<!-- 241 -->
<g id="node25" class="node">
<title>241</title>
<ellipse fill="none" stroke="black" cx="1138" cy="-306" rx="27" ry="18"/>
<text text-anchor="middle" x="1138" y="-301.8" font-family="Times,serif" font-size="14.00">241</text>
</g>
<!-- 241&#45;&gt;316 -->
<g id="edge29" class="edge">
<title>241-&gt;316</title>
<path fill="none" stroke="black" d="M1163.23,-313.12C1214.91,-327.31 1328,-367.67 1328,-449 1328,-449 1328,-449 1328,-595 1328,-649.38 1276.53,-694.8 1242.76,-718.74"/>
<polygon fill="black" stroke="black" points="1240.86,-715.8 1234.59,-724.33 1244.82,-721.57 1240.86,-715.8"/>
</g>
<!-- 241&#45;&gt;317 -->
<g id="edge30" class="edge">
<title>241-&gt;317</title>
<path fill="none" stroke="black" d="M1119.78,-319.85C1090.41,-341.1 1031.69,-385.81 990,-432 967.29,-457.17 844.31,-662.63 818,-684 791.05,-705.89 753.78,-719.95 726.41,-728.05"/>
<polygon fill="black" stroke="black" points="725.48,-724.67 716.8,-730.75 727.38,-731.41 725.48,-724.67"/>
</g>
<!-- 241&#45;&gt;312 -->
<g id="edge31" class="edge">
<title>241-&gt;312</title>
<path fill="none" stroke="black" d="M1145.51,-323.66C1156.58,-349.8 1176,-402.3 1176,-449 1176,-449 1176,-449 1176,-523 1176,-565.18 1157.08,-611 1143.25,-638.87"/>
<polygon fill="black" stroke="black" points="1140.21,-637.12 1138.75,-647.61 1146.43,-640.32 1140.21,-637.12"/>
</g>
<!-- 241&#45;&gt;313 -->
<g id="edge32" class="edge">
<title>241-&gt;313</title>
<path fill="none" stroke="black" d="M1138,-324.49C1138,-351.29 1138,-404.13 1138,-449 1138,-449 1138,-449 1138,-523 1138,-581.65 1076.87,-626.44 1038.13,-648.93"/>
<polygon fill="black" stroke="black" points="1036.67,-645.73 1029.66,-653.68 1040.09,-651.84 1036.67,-645.73"/>
</g>
<!-- 241&#45;&gt;314 -->
<g id="edge33" class="edge">
<title>241-&gt;314</title>
<path fill="none" stroke="black" d="M1110.84,-308.12C996.74,-313.39 557.75,-339.47 463,-432 407.94,-485.77 434.17,-588.3 451.27,-637.43"/>
<polygon fill="black" stroke="black" points="447.94,-638.53 454.64,-646.73 454.52,-636.14 447.94,-638.53"/>
</g>
<!-- 2018 -->
<g id="node26" class="node">
<title>2018</title>
<text text-anchor="middle" x="27" y="-229.8" font-family="Times,serif" font-size="14.00">2018</text>
</g>
<!-- 2018&#45;&gt;2017 -->
<!-- 197 -->
<g id="node27" class="node">
<title>197</title>
<ellipse fill="none" stroke="black" cx="160" cy="-234" rx="27" ry="18"/>
<text text-anchor="middle" x="160" y="-229.8" font-family="Times,serif" font-size="14.00">197</text>
</g>
<!-- 197&#45;&gt;317 -->
<g id="edge21" class="edge">
<title>197-&gt;317</title>
<path fill="none" stroke="black" d="M152.1,-251.62C140.44,-277.71 120,-330.13 120,-377 120,-377 120,-377 120,-595 120,-641.27 134.9,-659.27 174,-684 253.33,-734.17 545.63,-737.78 651.44,-737.39"/>
<polygon fill="black" stroke="black" points="651.33,-740.89 661.31,-737.33 651.29,-733.89 651.33,-740.89"/>
</g>
<!-- 197&#45;&gt;234 -->
<g id="edge22" class="edge">
<title>197-&gt;234</title>
<path fill="none" stroke="black" d="M180.78,-245.94C202.64,-257.44 237.29,-275.68 262.3,-288.84"/>
<polygon fill="black" stroke="black" points="260.55,-291.87 271.03,-293.43 263.81,-285.68 260.55,-291.87"/>
</g>
<!-- 205 -->
<g id="node28" class="node">
<title>205</title>
<ellipse fill="none" stroke="black" cx="1366" cy="-234" rx="27" ry="18"/>
<text text-anchor="middle" x="1366" y="-229.8" font-family="Times,serif" font-size="14.00">205</text>
</g>
<!-- 205&#45;&gt;316 -->
<g id="edge23" class="edge">
<title>205-&gt;316</title>
<path fill="none" stroke="black" d="M1373.51,-251.66C1384.58,-277.8 1404,-330.3 1404,-377 1404,-377 1404,-377 1404,-595 1404,-670.93 1305.43,-711.15 1250.29,-727.71"/>
<polygon fill="black" stroke="black" points="1249.33,-724.34 1240.69,-730.47 1251.26,-731.07 1249.33,-724.34"/>
</g>
<!-- 205&#45;&gt;317 -->
<g id="edge24" class="edge">
<title>205-&gt;317</title>
<path fill="none" stroke="black" d="M1366,-252.49C1366,-279.29 1366,-332.13 1366,-377 1366,-377 1366,-377 1366,-523 1366,-637.46 1270.72,-640.14 1165,-684 1086.18,-716.7 827.42,-731.07 728.72,-735.45"/>
<polygon fill="black" stroke="black" points="728.58,-731.95 718.74,-735.88 728.88,-738.95 728.58,-731.95"/>
</g>
<!-- 206 -->
<g id="node29" class="node">
<title>206</title>
<ellipse fill="none" stroke="black" cx="1497" cy="-234" rx="27" ry="18"/>
<text text-anchor="middle" x="1497" y="-229.8" font-family="Times,serif" font-size="14.00">206</text>
</g>
<!-- 2019 -->
<g id="node30" class="node">
<title>2019</title>
<text text-anchor="middle" x="27" y="-157.8" font-family="Times,serif" font-size="14.00">2019</text>
</g>
<!-- 2019&#45;&gt;2018 -->
<!-- 162 -->
<g id="node31" class="node">
<title>162</title>
<ellipse fill="none" stroke="black" cx="1135" cy="-162" rx="27" ry="18"/>
<text text-anchor="middle" x="1135" y="-157.8" font-family="Times,serif" font-size="14.00">162</text>
</g>
<!-- 162&#45;&gt;205 -->
<g id="edge19" class="edge">
<title>162-&gt;205</title>
<path fill="none" stroke="black" d="M1159.28,-170.36C1200.27,-182.78 1283.33,-207.95 1330.74,-222.31"/>
<polygon fill="black" stroke="black" points="1329.66,-225.65 1340.25,-225.2 1331.69,-218.95 1329.66,-225.65"/>
</g>
<!-- 192 -->
<g id="node32" class="node">
<title>192</title>
<ellipse fill="none" stroke="black" cx="1497" cy="-162" rx="27" ry="18"/>
<text text-anchor="middle" x="1497" y="-157.8" font-family="Times,serif" font-size="14.00">192</text>
</g>
<!-- 192&#45;&gt;206 -->
<g id="edge20" class="edge">
<title>192-&gt;206</title>
<path fill="none" stroke="black" d="M1497,-180.3C1497,-187.59 1497,-196.27 1497,-204.46"/>
<polygon fill="black" stroke="black" points="1493.5,-204.38 1497,-214.38 1500.5,-204.38 1493.5,-204.38"/>
</g>
<!-- 2020 -->
<g id="node33" class="node">
<title>2020</title>
<text text-anchor="middle" x="27" y="-85.8" font-family="Times,serif" font-size="14.00">2020</text>
</g>
<!-- 2020&#45;&gt;2019 -->
<!-- 121 -->
<g id="node34" class="node">
<title>121</title>
<ellipse fill="none" stroke="black" cx="903" cy="-90" rx="27" ry="18"/>
<text text-anchor="middle" x="903" y="-85.8" font-family="Times,serif" font-size="14.00">121</text>
</g>
<!-- 121&#45;&gt;316 -->
<g id="edge14" class="edge">
<title>121-&gt;316</title>
<path fill="none" stroke="black" d="M930.1,-92.22C1039.4,-97.87 1442,-125.95 1442,-233 1442,-233 1442,-233 1442,-595 1442,-683.68 1316.19,-718.97 1251.48,-731.25"/>
<polygon fill="black" stroke="black" points="1250.87,-727.8 1241.64,-733.02 1252.11,-734.69 1250.87,-727.8"/>
</g>
<!-- 121&#45;&gt;317 -->
<g id="edge15" class="edge">
<title>121-&gt;317</title>
<path fill="none" stroke="black" d="M876.15,-92.73C734.66,-102.22 82,-150.46 82,-233 82,-233 82,-233 82,-595 82,-639.94 92.54,-659.17 130,-684 173.33,-712.72 532.02,-730.33 651.47,-735.44"/>
<polygon fill="black" stroke="black" points="651.26,-738.94 661.4,-735.86 651.55,-731.94 651.26,-738.94"/>
</g>
<!-- 121&#45;&gt;277 -->
<g id="edge16" class="edge">
<title>121-&gt;277</title>
<path fill="none" stroke="black" d="M876.22,-93.06C775.35,-101.54 424,-137.91 424,-233 424,-233 424,-233 424,-307 424,-358.89 469.62,-404.61 500.14,-429.38"/>
<polygon fill="black" stroke="black" points="497.84,-432.03 507.87,-435.45 502.16,-426.52 497.84,-432.03"/>
</g>
<!-- 121&#45;&gt;162 -->
<g id="edge17" class="edge">
<title>121-&gt;162</title>
<path fill="none" stroke="black" d="M927.39,-98.36C968.55,-110.78 1051.97,-135.95 1099.59,-150.31"/>
<polygon fill="black" stroke="black" points="1098.56,-153.66 1109.14,-153.2 1100.58,-146.96 1098.56,-153.66"/>
</g>
<!-- 122 -->
<g id="node35" class="node">
<title>122</title>
<ellipse fill="none" stroke="black" cx="238" cy="-90" rx="27" ry="18"/>
<text text-anchor="middle" x="238" y="-85.8" font-family="Times,serif" font-size="14.00">122</text>
</g>
<!-- 122&#45;&gt;314 -->
<g id="edge18" class="edge">
<title>122-&gt;314</title>
<path fill="none" stroke="black" d="M238,-108.49C238,-135.29 238,-188.13 238,-233 238,-233 238,-233 238,-307 238,-446.08 212.68,-510.73 308,-612 338.3,-644.19 389.02,-656.83 423.92,-661.79"/>
<polygon fill="black" stroke="black" points="423.24,-665.23 433.6,-663.01 424.11,-658.29 423.24,-665.23"/>
</g>
<!-- 2021 -->
<g id="node36" class="node">
<title>2021</title>
<text text-anchor="middle" x="27" y="-13.8" font-family="Times,serif" font-size="14.00">2021</text>
</g>
<!-- 2021&#45;&gt;2020 -->
<!-- 81 -->
<g id="node37" class="node">
<title>81</title>
<ellipse fill="none" stroke="black" cx="903" cy="-18" rx="27" ry="18"/>
<text text-anchor="middle" x="903" y="-13.8" font-family="Times,serif" font-size="14.00">81</text>
</g>
<!-- 81&#45;&gt;314 -->
<g id="edge11" class="edge">
<title style="">81-&gt;314</title>
<path fill="none" stroke="black" d="M875.93,-20.51C769.56,-27.19 386,-58.38 386,-161 386,-161 386,-161 386,-523 386,-569.27 417.76,-615.06 440.22,-641.65"/>
<polygon fill="black" stroke="black" points="437.5,-643.86 446.71,-649.09 442.77,-639.25 437.5,-643.86"/>
</g>
<!-- 81&#45;&gt;121 -->
<g id="edge12" class="edge">
<title style="">81-&gt;192</title>
<path fill="none" stroke="black" d="M929.33,-23.3C1009.57,-36.76 1257.6,-80.95 1456,-144 1458.76,-144.88 1461.6,-145.87 1464.43,-146.91"/>
<polygon fill="black" stroke="black" points="1463.13,-150.16 1473.72,-150.57 1465.7,-143.65 1463.13,-150.16"/>
</g>
<!-- 81&#45;&gt;121 -->
<g id="edge13" class="edge">
<title style="">81-&gt;121</title>
<path fill="none" stroke="black" d="M903,-36.3C903,-43.59 903,-52.27 903,-60.46"/>
<polygon fill="black" stroke="black" points="899.5,-60.38 903,-70.38 906.5,-60.38 899.5,-60.38"/>
</g>
</g>
</svg>